<svg width="215" height="50" viewBox="0 0 215 50" fill="none" xmlns="http://www.w3.org/2000/svg">
<path d="M78.55 18.45V30.4C78.55 32.25 78.025 33.675 76.975 34.675C75.9417 35.675 74.5417 36.175 72.775 36.175C70.925 36.175 69.4417 35.65 68.325 34.6C67.2083 33.55 66.65 32.0583 66.65 30.125H70.9C70.9 30.8583 71.05 31.4167 71.35 31.8C71.65 32.1667 72.0833 32.35 72.65 32.35C73.1667 32.35 73.5667 32.1833 73.85 31.85C74.1333 31.5167 74.275 31.0333 74.275 30.4V18.45H78.55ZM90.8531 36.2C89.4865 36.2 88.2531 35.9083 87.1531 35.325C86.0698 34.7417 85.2115 33.9083 84.5781 32.825C83.9615 31.7417 83.6531 30.475 83.6531 29.025C83.6531 27.5917 83.9698 26.3333 84.6031 25.25C85.2365 24.15 86.1031 23.3083 87.2031 22.725C88.3031 22.1417 89.5365 21.85 90.9031 21.85C92.2698 21.85 93.5031 22.1417 94.6031 22.725C95.7031 23.3083 96.5698 24.15 97.2031 25.25C97.8365 26.3333 98.1531 27.5917 98.1531 29.025C98.1531 30.4583 97.8281 31.725 97.1781 32.825C96.5448 33.9083 95.6698 34.7417 94.5531 35.325C93.4531 35.9083 92.2198 36.2 90.8531 36.2ZM90.8531 32.5C91.6698 32.5 92.3615 32.2 92.9281 31.6C93.5115 31 93.8031 30.1417 93.8031 29.025C93.8031 27.9083 93.5198 27.05 92.9531 26.45C92.4031 25.85 91.7198 25.55 90.9031 25.55C90.0698 25.55 89.3781 25.85 88.8281 26.45C88.2781 27.0333 88.0031 27.8917 88.0031 29.025C88.0031 30.1417 88.2698 31 88.8031 31.6C89.3531 32.2 90.0365 32.5 90.8531 32.5ZM107.196 24.025C107.596 23.375 108.171 22.85 108.921 22.45C109.671 22.05 110.529 21.85 111.496 21.85C112.646 21.85 113.688 22.1417 114.621 22.725C115.554 23.3083 116.288 24.1417 116.821 25.225C117.371 26.3083 117.646 27.5667 117.646 29C117.646 30.4333 117.371 31.7 116.821 32.8C116.288 33.8833 115.554 34.725 114.621 35.325C113.688 35.9083 112.646 36.2 111.496 36.2C110.513 36.2 109.654 36.0083 108.921 35.625C108.188 35.225 107.613 34.7 107.196 34.05V36H102.921V17.5H107.196V24.025ZM113.296 29C113.296 27.9333 112.996 27.1 112.396 26.5C111.813 25.8833 111.088 25.575 110.221 25.575C109.371 25.575 108.646 25.8833 108.046 26.5C107.463 27.1167 107.171 27.9583 107.171 29.025C107.171 30.0917 107.463 30.9333 108.046 31.55C108.646 32.1667 109.371 32.475 110.221 32.475C111.071 32.475 111.796 32.1667 112.396 31.55C112.996 30.9167 113.296 30.0667 113.296 29ZM142.812 18.45V21.875H138.162V36H133.887V21.875H129.237V18.45H142.812ZM151.732 24.375C152.232 23.6083 152.857 23.0083 153.607 22.575C154.357 22.125 155.191 21.9 156.107 21.9V26.425H154.932C153.866 26.425 153.066 26.6583 152.532 27.125C151.999 27.575 151.732 28.375 151.732 29.525V36H147.457V22.05H151.732V24.375ZM159.801 29C159.801 27.5667 160.067 26.3083 160.601 25.225C161.151 24.1417 161.892 23.3083 162.826 22.725C163.759 22.1417 164.801 21.85 165.951 21.85C166.934 21.85 167.792 22.05 168.526 22.45C169.276 22.85 169.851 23.375 170.251 24.025V22.05H174.526V36H170.251V34.025C169.834 34.675 169.251 35.2 168.501 35.6C167.767 36 166.909 36.2 165.926 36.2C164.792 36.2 163.759 35.9083 162.826 35.325C161.892 34.725 161.151 33.8833 160.601 32.8C160.067 31.7 159.801 30.4333 159.801 29ZM170.251 29.025C170.251 27.9583 169.951 27.1167 169.351 26.5C168.767 25.8833 168.051 25.575 167.201 25.575C166.351 25.575 165.626 25.8833 165.026 26.5C164.442 27.1 164.151 27.9333 164.151 29C164.151 30.0667 164.442 30.9167 165.026 31.55C165.626 32.1667 166.351 32.475 167.201 32.475C168.051 32.475 168.767 32.1667 169.351 31.55C169.951 30.9333 170.251 30.0917 170.251 29.025ZM179.268 29.025C179.268 27.575 179.56 26.3083 180.143 25.225C180.743 24.1417 181.568 23.3083 182.618 22.725C183.685 22.1417 184.902 21.85 186.268 21.85C188.018 21.85 189.477 22.3083 190.643 23.225C191.827 24.1417 192.602 25.4333 192.968 27.1H188.418C188.035 26.0333 187.293 25.5 186.193 25.5C185.41 25.5 184.785 25.8083 184.318 26.425C183.852 27.025 183.618 27.8917 183.618 29.025C183.618 30.1583 183.852 31.0333 184.318 31.65C184.785 32.25 185.41 32.55 186.193 32.55C187.293 32.55 188.035 32.0167 188.418 30.95H192.968C192.602 32.5833 191.827 33.8667 190.643 34.8C189.46 35.7333 188.002 36.2 186.268 36.2C184.902 36.2 183.685 35.9083 182.618 35.325C181.568 34.7417 180.743 33.9083 180.143 32.825C179.56 31.7417 179.268 30.475 179.268 29.025ZM206.28 36L202.03 30.15V36H197.755V17.5H202.03V27.725L206.255 22.05H211.53L205.73 29.05L211.58 36H206.28Z" fill="#2563EB"/>
<rect width="50" height="50" rx="10" fill="#2563EB"/>
<path d="M26.0039 9.5625H31.8633V29.25C31.8633 31.0599 31.4596 32.6615 30.6523 34.0547C29.8581 35.4349 28.7318 36.5026 27.2734 37.2578C25.8151 38.013 24.168 38.3906 22.332 38.3906C19.3242 38.3906 16.9805 37.6289 15.3008 36.1055C13.6211 34.569 12.7812 32.401 12.7812 29.6016H18.6797C18.6797 30.9948 18.9727 32.0234 19.5586 32.6875C20.1445 33.3516 21.069 33.6836 22.332 33.6836C23.4518 33.6836 24.3438 33.2995 25.0078 32.5312C25.6719 31.763 26.0039 30.6693 26.0039 29.25V9.5625Z" fill="white"/>
</svg>
